ffmpeg started on 2025-07-07 at 19:42:54
Report written to "D:\Convert\FFMetrics\reports\ssim_report-6.txt"
Log level: 32
Command line:
ffmpeg -hide_banner -nostdin -i "D:\\\xc0\xed\xe8\xec\xe5\\[\xd2\xee\xef-5]\\\xc2 \xef\xee\xe8\xf1\xea\xe0\xf5 \xf3\xf2\xf0\xe0\xf7\xe5\xed\xed\xee\xe3\xee \xe1\xf3\xe4\xf3\xf9\xe5\xe3\xee\\\xc2 \xef\xee\xe8\xf1\xea\xe0\xf5 \xf3\xf2\xf0\xe0\xf7\xe5\xed\xed\xee\xe3\xee \xe1\xf3\xe4\xf3\xf9\xe5\xe3\xee [SP]_HEVC.mkv" -i "D:\\\xc0\xed\xe8\xec\xe5\\[\xd2\xee\xef-5]\\\xc2 \xef\xee\xe8\xf1\xea\xe0\xf5 \xf3\xf2\xf0\xe0\xf7\xe5\xed\xed\xee\xe3\xee \xe1\xf3\xe4\xf3\xf9\xe5\xe3\xee\\\xc2 \xef\xee\xe8\xf1\xea\xe0\xf5 \xf3\xf2\xf0\xe0\xf7\xe5\xed\xed\xee\xe3\xee \xe1\xf3\xe4\xf3\xf9\xe5\xe3\xee [SP].mp4" -lavfi "[0:v]settb=AVTB,setpts=PTS-STARTPTS,format=pix_fmts=yuv420p10,fps=24000/1001,scale=1280:720:flags=bicubic[main];[1:v]settb=AVTB,setpts=PTS-STARTPTS,format=pix_fmts=yuv420p,fps=24000/1001,scale=1280:720:flags=bicubic[ref];[main][ref]ssim=eof_action=endall:stats_file='D\\:/Convert/FFMetrics/logs/ssim_logfile-6.txt'" -f null -
Input #0, matroska,webm, from 'D:\Аниме\[Топ-5]\В поисках утраченного будущего\В поисках утраченного будущего [SP]_HEVC.mkv':
  Metadata:
    COMPATIBLE_BRANDS: isom
    MAJOR_BRAND     : isom
    MINOR_VERSION   : 1
    ENCODER         : Lavf61.7.100
  Duration: 00:27:59.09, start: -0.021000, bitrate: 641 kb/s
  Stream #0:0: Video: hevc (Main 10), yuv420p10le(tv, bt709, progressive), 1280x720 [SAR 1:1 DAR 16:9], 23.98 fps, 23.98 tbr, 1k tbn (default)
      Metadata:
        VENDOR_ID       : [0][0][0][0]
        ENCODER         : Lavc61.19.100 libx265
        BPS             : 443617
        DURATION        : 00:27:59.010708333
        NUMBER_OF_FRAMES: 40256
        NUMBER_OF_BYTES : 93104857
        _STATISTICS_WRITING_APP: mkvpropedit v66.0.0 ('Josie') 64-bit
        _STATISTICS_WRITING_DATE_UTC: 2025-07-07 16:17:40
        _STATISTICS_TAGS: BPS DURATION NUMBER_OF_FRAMES NUMBER_OF_BYTES
  Stream #0:1(eng): Audio: aac (LC), 48000 Hz, stereo, fltp (default)
      Metadata:
        HANDLER_NAME    : ?????????? ????? Apple
        VENDOR_ID       : [0][0][0][0]
        ENCODER         : Lavc61.19.100 aac
        BPS             : 193433
        DURATION        : 00:27:59.061000000
        NUMBER_OF_FRAMES: 78707
        NUMBER_OF_BYTES : 40598365
        _STATISTICS_WRITING_APP: mkvpropedit v66.0.0 ('Josie') 64-bit
        _STATISTICS_WRITING_DATE_UTC: 2025-07-07 16:17:40
        _STATISTICS_TAGS: BPS DURATION NUMBER_OF_FRAMES NUMBER_OF_BYTES
Input #1, mov,mp4,m4a,3gp,3g2,mj2, from 'D:\Аниме\[Топ-5]\В поисках утраченного будущего\В поисках утраченного будущего [SP].mp4':
  Metadata:
    major_brand     : isom
    minor_version   : 1
    compatible_brands: isom
    creation_time   : 2016-04-10T05:19:10.000000Z
    encoder         : Yamb 2.1.0.0 [http://yamb.unite-video.com]
  Duration: 00:27:59.09, start: 0.000000, bitrate: 2173 kb/s
  Stream #1:0[0x1](und): Video: h264 (Main) (avc1 / 0x31637661), yuv420p(progressive), 1280x720 [SAR 1:1 DAR 16:9], 1986 kb/s, 23.98 fps, 23.98 tbr, 24k tbn (default)
      Metadata:
        creation_time   : 2015-08-30T02:56:02.000000Z
        vendor_id       : [0][0][0][0]
  Stream #1:1[0x2](eng): Audio: aac (LC) (mp4a / 0x6134706D), 48000 Hz, stereo, fltp, 183 kb/s (default)
      Metadata:
        creation_time   : 2016-04-10T05:19:49.000000Z
        handler_name    : ?????????? ????? Apple
        vendor_id       : [0][0][0][0]
Stream mapping:
  Stream #0:0 (hevc) -> settb:default
  Stream #1:0 (h264) -> settb:default
  ssim:default -> Stream #0:0 (wrapped_avframe)
  Stream #0:1 -> #0:1 (aac (native) -> pcm_s16le (native))
[swscaler @ 000001c54a2bac00] No accelerated colorspace conversion found from yuv420p to bgr48le.
[swscaler @ 000001c54a45c140] No accelerated colorspace conversion found from yuv420p to bgr48le.
[swscaler @ 000001c54a545640] No accelerated colorspace conversion found from yuv420p to bgr48le.
[swscaler @ 000001c54a752b00] No accelerated colorspace conversion found from yuv420p to bgr48le.
[swscaler @ 000001c54a7e6600] No accelerated colorspace conversion found from yuv420p to bgr48le.
[swscaler @ 000001c54a906780] No accelerated colorspace conversion found from yuv420p to bgr48le.
[swscaler @ 000001c54aa8b040] No accelerated colorspace conversion found from yuv420p to bgr48le.
[swscaler @ 000001c54ab9f7c0] No accelerated colorspace conversion found from yuv420p to bgr48le.
[swscaler @ 000001c54ac33040] No accelerated colorspace conversion found from yuv420p to bgr48le.
[swscaler @ 000001c54ac96bc0] No accelerated colorspace conversion found from yuv420p to bgr48le.
[swscaler @ 000001c54ad20040] No accelerated colorspace conversion found from yuv420p to bgr48le.
[swscaler @ 000001c54ad90040] No accelerated colorspace conversion found from yuv420p to bgr48le.
[swscaler @ 000001c54adb2d40] No accelerated colorspace conversion found from yuv420p to bgr48le.
[swscaler @ 000001c54ee80040] No accelerated colorspace conversion found from yuv420p to bgr48le.
[swscaler @ 000001c54ef09040] No accelerated colorspace conversion found from yuv420p to bgr48le.
[swscaler @ 000001c54ef76040] No accelerated colorspace conversion found from yuv420p to bgr48le.
Output #0, null, to 'pipe:':
  Metadata:
    COMPATIBLE_BRANDS: isom
    MAJOR_BRAND     : isom
    MINOR_VERSION   : 1
    encoder         : Lavf61.7.100
  Stream #0:0: Video: wrapped_avframe, yuv420p10le(tv, bt709, progressive), 1280x720 [SAR 1:1 DAR 16:9], q=2-31, 200 kb/s, 23.98 fps, 23.98 tbn
      Metadata:
        encoder         : Lavc61.19.100 wrapped_avframe
  Stream #0:1(eng): Audio: pcm_s16le, 48000 Hz, stereo, s16, 1536 kb/s (default)
      Metadata:
        HANDLER_NAME    : ?????????? ????? Apple
        VENDOR_ID       : [0][0][0][0]
        _STATISTICS_TAGS: BPS DURATION NUMBER_OF_FRAMES NUMBER_OF_BYTES
        BPS             : 193433
        DURATION        : 00:27:59.061000000
        NUMBER_OF_FRAMES: 78707
        NUMBER_OF_BYTES : 40598365
        _STATISTICS_WRITING_APP: mkvpropedit v66.0.0 ('Josie') 64-bit
        _STATISTICS_WRITING_DATE_UTC: 2025-07-07 16:17:40
        encoder         : Lavc61.19.100 pcm_s16le
frame=   83 fps=0.0 q=-0.0 size=N/A time=00:00:03.46 bitrate=N/A speed=6.62x    frame=  168 fps=163 q=-0.0 size=N/A time=00:00:07.00 bitrate=N/A speed=6.79x    frame=  259 fps=166 q=-0.0 size=N/A time=00:00:10.80 bitrate=N/A speed=6.93x    frame=  354 fps=171 q=-0.0 size=N/A time=00:00:14.76 bitrate=N/A speed=7.14x    frame=  446 fps=173 q=-0.0 size=N/A time=00:00:18.60 bitrate=N/A speed=7.21x    frame=  547 fps=176 q=-0.0 size=N/A time=00:00:22.81 bitrate=N/A speed=7.35x    frame=  647 fps=179 q=-0.0 size=N/A time=00:00:26.98 bitrate=N/A speed=7.46x    frame=  745 fps=180 q=-0.0 size=N/A time=00:00:31.07 bitrate=N/A speed=7.53x    frame=  844 fps=181 q=-0.0 size=N/A time=00:00:35.20 bitrate=N/A speed=7.56x    frame=  946 fps=183 q=-0.0 size=N/A time=00:00:39.45 bitrate=N/A speed=7.62x    frame= 1039 fps=183 q=-0.0 size=N/A time=00:00:43.33 bitrate=N/A speed=7.62x    frame= 1137 fps=183 q=-0.0 size=N/A time=00:00:47.42 bitrate=N/A speed=7.63x    frame= 1232 fps=183 q=-0.0 size=N/A time=00:00:51.38 bitrate=N/A speed=7.64x    frame= 1322 fps=183 q=-0.0 size=N/A time=00:00:55.13 bitrate=N/A speed=7.62x    frame= 1412 fps=182 q=-0.0 size=N/A time=00:00:58.89 bitrate=N/A speed= 7.6x    frame= 1514 fps=183 q=-0.0 size=N/A time=00:01:03.14 bitrate=N/A speed=7.63x    frame= 1605 fps=183 q=-0.0 size=N/A time=00:01:06.94 bitrate=N/A speed=7.62x    frame= 1705 fps=183 q=-0.0 size=N/A time=00:01:11.11 bitrate=N/A speed=7.64x    frame= 1798 fps=183 q=-0.0 size=N/A time=00:01:14.99 bitrate=N/A speed=7.64x    frame= 1890 fps=183 q=-0.0 size=N/A time=00:01:18.82 bitrate=N/A speed=7.63x    frame= 1991 fps=183 q=-0.0 size=N/A time=00:01:23.04 bitrate=N/A speed=7.65x    frame= 2091 fps=184 q=-0.0 size=N/A time=00:01:27.21 bitrate=N/A speed=7.67x    frame= 2178 fps=183 q=-0.0 size=N/A time=00:01:30.84 bitrate=N/A speed=7.65x    frame= 2284 fps=184 q=-0.0 size=N/A time=00:01:35.26 bitrate=N/A speed=7.68x    frame= 2378 fps=184 q=-0.0 size=N/A time=00:01:39.18 bitrate=N/A speed=7.68x    frame= 2467 fps=184 q=-0.0 size=N/A time=00:01:42.89 bitrate=N/A speed=7.67x    frame= 2564 fps=184 q=-0.0 size=N/A time=00:01:46.94 bitrate=N/A speed=7.67x    frame= 2671 fps=185 q=-0.0 size=N/A time=00:01:51.40 bitrate=N/A speed= 7.7x    frame= 2764 fps=184 q=-0.0 size=N/A time=00:01:55.28 bitrate=N/A speed=7.69x    frame= 2849 fps=184 q=-0.0 size=N/A time=00:01:58.82 bitrate=N/A speed=7.66x    frame= 2947 fps=184 q=-0.0 size=N/A time=00:02:02.91 bitrate=N/A speed=7.67x    frame= 3038 fps=184 q=-0.0 size=N/A time=00:02:06.70 bitrate=N/A speed=7.66x    frame= 3133 fps=184 q=-0.0 size=N/A time=00:02:10.67 bitrate=N/A speed=7.66x    frame= 3223 fps=183 q=-0.0 size=N/A time=00:02:14.42 bitrate=N/A speed=7.65x    frame= 3315 fps=183 q=-0.0 size=N/A time=00:02:18.26 bitrate=N/A speed=7.65x    frame= 3408 fps=183 q=-0.0 size=N/A time=00:02:22.14 bitrate=N/A speed=7.64x    frame= 3501 fps=183 q=-0.0 size=N/A time=00:02:26.02 bitrate=N/A speed=7.64x    frame= 3597 fps=183 q=-0.0 size=N/A time=00:02:30.02 bitrate=N/A speed=7.64x    frame= 3697 fps=183 q=-0.0 size=N/A time=00:02:34.19 bitrate=N/A speed=7.65x    frame= 3795 fps=184 q=-0.0 size=N/A time=00:02:38.28 bitrate=N/A speed=7.65x    frame= 3894 fps=184 q=-0.0 size=N/A time=00:02:42.41 bitrate=N/A speed=7.66x    frame= 3990 fps=184 q=-0.0 size=N/A time=00:02:46.41 bitrate=N/A speed=7.67x    frame= 4088 fps=184 q=-0.0 size=N/A time=00:02:50.50 bitrate=N/A speed=7.67x    frame= 4177 fps=184 q=-0.0 size=N/A time=00:02:54.21 bitrate=N/A speed=7.66x    frame= 4283 fps=184 q=-0.0 size=N/A time=00:02:58.63 bitrate=N/A speed=7.68x    frame= 4380 fps=184 q=-0.0 size=N/A time=00:03:02.68 bitrate=N/A speed=7.69x    frame= 4479 fps=184 q=-0.0 size=N/A time=00:03:06.81 bitrate=N/A speed=7.69x    frame= 4570 fps=184 q=-0.0 size=N/A time=00:03:10.60 bitrate=N/A speed=7.69x    frame= 4664 fps=184 q=-0.0 size=N/A time=00:03:14.52 bitrate=N/A speed=7.68x    frame= 4753 fps=184 q=-0.0 size=N/A time=00:03:18.23 bitrate=N/A speed=7.67x    frame= 4859 fps=184 q=-0.0 size=N/A time=00:03:22.66 bitrate=N/A speed=7.69x    frame= 4955 fps=184 q=-0.0 size=N/A time=00:03:26.66 bitrate=N/A speed=7.69x    frame= 5056 fps=185 q=-0.0 size=N/A time=00:03:30.87 bitrate=N/A speed= 7.7x    frame= 5153 fps=185 q=-0.0 size=N/A time=00:03:34.92 bitrate=N/A speed= 7.7x    frame= 5254 fps=185 q=-0.0 size=N/A time=00:03:39.13 bitrate=N/A speed=7.71x    frame= 5355 fps=185 q=-0.0 size=N/A time=00:03:43.34 bitrate=N/A speed=7.72x    frame= 5448 fps=185 q=-0.0 size=N/A time=00:03:47.22 bitrate=N/A speed=7.72x    frame= 5544 fps=185 q=-0.0 size=N/A time=00:03:51.23 bitrate=N/A speed=7.71x    frame= 5636 fps=185 q=-0.0 size=N/A time=00:03:55.06 bitrate=N/A speed=7.71x    frame= 5736 fps=185 q=-0.0 size=N/A time=00:03:59.23 bitrate=N/A speed=7.71x    frame= 5832 fps=185 q=-0.0 size=N/A time=00:04:03.24 bitrate=N/A speed=7.72x    frame= 5931 fps=185 q=-0.0 size=N/A time=00:04:07.37 bitrate=N/A speed=7.72x    frame= 6023 fps=185 q=-0.0 size=N/A time=00:04:11.20 bitrate=N/A speed=7.72x    frame= 6123 fps=185 q=-0.0 size=N/A time=00:04:15.38 bitrate=N/A speed=7.72x    frame= 6221 fps=185 q=-0.0 size=N/A time=00:04:19.46 bitrate=N/A speed=7.73x    frame= 6319 fps=185 q=-0.0 size=N/A time=00:04:23.55 bitrate=N/A speed=7.73x    frame= 6420 fps=185 q=-0.0 size=N/A time=00:04:27.76 bitrate=N/A speed=7.74x    frame= 6509 fps=185 q=-0.0 size=N/A time=00:04:31.47 bitrate=N/A speed=7.73x    frame= 6609 fps=185 q=-0.0 size=N/A time=00:04:35.65 bitrate=N/A speed=7.73x    frame= 6707 fps=185 q=-0.0 size=N/A time=00:04:39.73 bitrate=N/A speed=7.74x    frame= 6801 fps=185 q=-0.0 size=N/A time=00:04:43.65 bitrate=N/A speed=7.73x    frame= 6889 fps=185 q=-0.0 size=N/A time=00:04:47.32 bitrate=N/A speed=7.73x    frame= 6999 fps=186 q=-0.0 size=N/A time=00:04:51.91 bitrate=N/A speed=7.74x    frame= 7093 fps=186 q=-0.0 size=N/A time=00:04:55.83 bitrate=N/A speed=7.74x    frame= 7179 fps=185 q=-0.0 size=N/A time=00:04:59.42 bitrate=N/A speed=7.73x    frame= 7287 fps=186 q=-0.0 size=N/A time=00:05:03.92 bitrate=N/A speed=7.74x    frame= 7381 fps=186 q=-0.0 size=N/A time=00:05:07.84 bitrate=N/A speed=7.74x    frame= 7485 fps=186 q=-0.0 size=N/A time=00:05:12.18 bitrate=N/A speed=7.75x    frame= 7585 fps=186 q=-0.0 size=N/A time=00:05:16.35 bitrate=N/A speed=7.75x    frame= 7680 fps=186 q=-0.0 size=N/A time=00:05:20.32 bitrate=N/A speed=7.75x    frame= 7778 fps=186 q=-0.0 size=N/A time=00:05:24.40 bitrate=N/A speed=7.76x    frame= 7871 fps=186 q=-0.0 size=N/A time=00:05:28.28 bitrate=N/A speed=7.75x    frame= 7981 fps=186 q=-0.0 size=N/A time=00:05:32.87 bitrate=N/A speed=7.77x    frame= 8067 fps=186 q=-0.0 size=N/A time=00:05:36.46 bitrate=N/A speed=7.76x    frame= 8169 fps=186 q=-0.0 size=N/A time=00:05:40.71 bitrate=N/A speed=7.76x    frame= 8258 fps=186 q=-0.0 size=N/A time=00:05:44.42 bitrate=N/A speed=7.76x    frame= 8348 fps=186 q=-0.0 size=N/A time=00:05:48.18 bitrate=N/A speed=7.75x    frame= 8443 fps=186 q=-0.0 size=N/A time=00:05:52.14 bitrate=N/A speed=7.75x    frame= 8533 fps=186 q=-0.0 size=N/A time=00:05:55.89 bitrate=N/A speed=7.74x    frame= 8636 fps=186 q=-0.0 size=N/A time=00:06:00.19 bitrate=N/A speed=7.75x    frame= 8730 fps=186 q=-0.0 size=N/A time=00:06:04.11 bitrate=N/A speed=7.75x    frame= 8833 fps=186 q=-0.0 size=N/A time=00:06:08.40 bitrate=N/A speed=7.75x    frame= 8926 fps=186 q=-0.0 size=N/A time=00:06:12.28 bitrate=N/A speed=7.75x    frame= 9019 fps=186 q=-0.0 size=N/A time=00:06:16.16 bitrate=N/A speed=7.75x    frame= 9115 fps=186 q=-0.0 size=N/A time=00:06:20.17 bitrate=N/A speed=7.75x    frame= 9212 fps=186 q=-0.0 size=N/A time=00:06:24.21 bitrate=N/A speed=7.75x    frame= 9316 fps=186 q=-0.0 size=N/A time=00:06:28.55 bitrate=N/A speed=7.76x    frame= 9407 fps=186 q=-0.0 size=N/A time=00:06:32.35 bitrate=N/A speed=7.75x    frame= 9499 fps=186 q=-0.0 size=N/A time=00:06:36.18 bitrate=N/A speed=7.75x    frame= 9589 fps=186 q=-0.0 size=N/A time=00:06:39.94 bitrate=N/A speed=7.75x    frame= 9693 fps=186 q=-0.0 size=N/A time=00:06:44.27 bitrate=N/A speed=7.75x    frame= 9789 fps=186 q=-0.0 size=N/A time=00:06:48.28 bitrate=N/A speed=7.75x    frame= 9889 fps=186 q=-0.0 size=N/A time=00:06:52.45 bitrate=N/A speed=7.76x    frame= 9987 fps=186 q=-0.0 size=N/A time=00:06:56.54 bitrate=N/A speed=7.76x    frame=10076 fps=186 q=-0.0 size=N/A time=00:07:00.25 bitrate=N/A speed=7.75x    frame=10193 fps=186 q=-0.0 size=N/A time=00:07:05.13 bitrate=N/A speed=7.77x    frame=10291 fps=186 q=-0.0 size=N/A time=00:07:09.22 bitrate=N/A speed=7.77x    frame=10383 fps=186 q=-0.0 size=N/A time=00:07:13.05 bitrate=N/A speed=7.77x    frame=10495 fps=186 q=-0.0 size=N/A time=00:07:17.72 bitrate=N/A speed=7.78x    frame=10591 fps=187 q=-0.0 size=N/A time=00:07:21.73 bitrate=N/A speed=7.78x    frame=10689 fps=187 q=-0.0 size=N/A time=00:07:25.82 bitrate=N/A speed=7.78x    frame=10783 fps=186 q=-0.0 size=N/A time=00:07:29.74 bitrate=N/A speed=7.78x    frame=10881 fps=187 q=-0.0 size=N/A time=00:07:33.82 bitrate=N/A speed=7.78x    frame=10975 fps=187 q=-0.0 size=N/A time=00:07:37.74 bitrate=N/A speed=7.78x    frame=11072 fps=186 q=-0.0 size=N/A time=00:07:41.79 bitrate=N/A speed=7.78x    frame=11170 fps=187 q=-0.0 size=N/A time=00:07:45.88 bitrate=N/A speed=7.78x    frame=11260 fps=186 q=-0.0 size=N/A time=00:07:49.63 bitrate=N/A speed=7.78x    frame=11368 fps=187 q=-0.0 size=N/A time=00:07:54.14 bitrate=N/A speed=7.78x    frame=11461 fps=187 q=-0.0 size=N/A time=00:07:58.01 bitrate=N/A speed=7.78x    frame=11560 fps=187 q=-0.0 size=N/A time=00:08:02.14 bitrate=N/A speed=7.78x    frame=11667 fps=187 q=-0.0 size=N/A time=00:08:06.61 bitrate=N/A speed=7.79x    frame=11759 fps=187 q=-0.0 size=N/A time=00:08:10.44 bitrate=N/A speed=7.79x    frame=11867 fps=187 q=-0.0 size=N/A time=00:08:14.95 bitrate=N/A speed= 7.8x    frame=11968 fps=187 q=-0.0 size=N/A time=00:08:19.16 bitrate=N/A speed= 7.8x    frame=12068 fps=187 q=-0.0 size=N/A time=00:08:23.33 bitrate=N/A speed= 7.8x    frame=12163 fps=187 q=-0.0 size=N/A time=00:08:27.29 bitrate=N/A speed= 7.8x    frame=12259 fps=187 q=-0.0 size=N/A time=00:08:31.30 bitrate=N/A speed= 7.8x    frame=12354 fps=187 q=-0.0 size=N/A time=00:08:35.26 bitrate=N/A speed= 7.8x    frame=12448 fps=187 q=-0.0 size=N/A time=00:08:39.18 bitrate=N/A speed= 7.8x    frame=12557 fps=187 q=-0.0 size=N/A time=00:08:43.73 bitrate=N/A speed= 7.8x    frame=12650 fps=187 q=-0.0 size=N/A time=00:08:47.61 bitrate=N/A speed= 7.8x    frame=12752 fps=187 q=-0.0 size=N/A time=00:08:51.86 bitrate=N/A speed=7.81x    frame=12858 fps=187 q=-0.0 size=N/A time=00:08:56.28 bitrate=N/A speed=7.81x    frame=12961 fps=187 q=-0.0 size=N/A time=00:09:00.58 bitrate=N/A speed=7.82x    frame=13059 fps=187 q=-0.0 size=N/A time=00:09:04.66 bitrate=N/A speed=7.82x    frame=13156 fps=187 q=-0.0 size=N/A time=00:09:08.71 bitrate=N/A speed=7.82x    frame=13268 fps=188 q=-0.0 size=N/A time=00:09:13.38 bitrate=N/A speed=7.83x    frame=13358 fps=188 q=-0.0 size=N/A time=00:09:17.13 bitrate=N/A speed=7.82x    frame=13461 fps=188 q=-0.0 size=N/A time=00:09:21.43 bitrate=N/A speed=7.83x    frame=13555 fps=188 q=-0.0 size=N/A time=00:09:25.35 bitrate=N/A speed=7.82x    frame=13646 fps=188 q=-0.0 size=N/A time=00:09:29.15 bitrate=N/A speed=7.82x    frame=13745 fps=188 q=-0.0 size=N/A time=00:09:33.28 bitrate=N/A speed=7.82x    frame=13836 fps=187 q=-0.0 size=N/A time=00:09:37.07 bitrate=N/A speed=7.82x    frame=13925 fps=187 q=-0.0 size=N/A time=00:09:40.78 bitrate=N/A speed=7.82x    frame=14023 fps=187 q=-0.0 size=N/A time=00:09:44.87 bitrate=N/A speed=7.82x    frame=14110 fps=187 q=-0.0 size=N/A time=00:09:48.50 bitrate=N/A speed=7.81x    frame=14206 fps=187 q=-0.0 size=N/A time=00:09:52.50 bitrate=N/A speed=7.81x    frame=14307 fps=187 q=-0.0 size=N/A time=00:09:56.76 bitrate=N/A speed=7.81x    frame=14401 fps=187 q=-0.0 size=N/A time=00:10:00.64 bitrate=N/A speed=7.81x    frame=14495 fps=187 q=-0.0 size=N/A time=00:10:04.56 bitrate=N/A speed=7.81x    frame=14592 fps=187 q=-0.0 size=N/A time=00:10:08.60 bitrate=N/A speed=7.81x    frame=14682 fps=187 q=-0.0 size=N/A time=00:10:12.36 bitrate=N/A speed=7.81x    frame=14779 fps=187 q=-0.0 size=N/A time=00:10:16.40 bitrate=N/A speed=7.81x    frame=14866 fps=187 q=-0.0 size=N/A time=00:10:20.03 bitrate=N/A speed= 7.8x    frame=14956 fps=187 q=-0.0 size=N/A time=00:10:23.78 bitrate=N/A speed= 7.8x    frame=15041 fps=187 q=-0.0 size=N/A time=00:10:27.33 bitrate=N/A speed=7.79x    frame=15129 fps=187 q=-0.0 size=N/A time=00:10:31.00 bitrate=N/A speed=7.79x    frame=15217 fps=187 q=-0.0 size=N/A time=00:10:34.67 bitrate=N/A speed=7.78x    frame=15302 fps=186 q=-0.0 size=N/A time=00:10:38.22 bitrate=N/A speed=7.78x    frame=15392 fps=186 q=-0.0 size=N/A time=00:10:41.97 bitrate=N/A speed=7.77x    frame=15484 fps=186 q=-0.0 size=N/A time=00:10:45.81 bitrate=N/A speed=7.77x    frame=15568 fps=186 q=-0.0 size=N/A time=00:10:49.31 bitrate=N/A speed=7.77x    frame=15667 fps=186 q=-0.0 size=N/A time=00:10:53.44 bitrate=N/A speed=7.77x    frame=15759 fps=186 q=-0.0 size=N/A time=00:10:57.28 bitrate=N/A speed=7.77x    frame=15858 fps=186 q=-0.0 size=N/A time=00:11:01.41 bitrate=N/A speed=7.77x    frame=15951 fps=186 q=-0.0 size=N/A time=00:11:05.28 bitrate=N/A speed=7.77x    frame=16046 fps=186 q=-0.0 size=N/A time=00:11:09.25 bitrate=N/A speed=7.77x    frame=16137 fps=186 q=-0.0 size=N/A time=00:11:13.04 bitrate=N/A speed=7.76x    frame=16222 fps=186 q=-0.0 size=N/A time=00:11:16.59 bitrate=N/A speed=7.76x    frame=16317 fps=186 q=-0.0 size=N/A time=00:11:20.55 bitrate=N/A speed=7.76x    frame=16400 fps=186 q=-0.0 size=N/A time=00:11:24.01 bitrate=N/A speed=7.75x    frame=16481 fps=186 q=-0.0 size=N/A time=00:11:27.39 bitrate=N/A speed=7.74x    frame=16570 fps=186 q=-0.0 size=N/A time=00:11:31.10 bitrate=N/A speed=7.74x    frame=16659 fps=186 q=-0.0 size=N/A time=00:11:34.81 bitrate=N/A speed=7.74x    frame=16748 fps=185 q=-0.0 size=N/A time=00:11:38.53 bitrate=N/A speed=7.74x    frame=16836 fps=185 q=-0.0 size=N/A time=00:11:42.20 bitrate=N/A speed=7.73x    frame=16925 fps=185 q=-0.0 size=N/A time=00:11:45.91 bitrate=N/A speed=7.73x    frame=17016 fps=185 q=-0.0 size=N/A time=00:11:49.70 bitrate=N/A speed=7.73x    frame=17111 fps=185 q=-0.0 size=N/A time=00:11:53.67 bitrate=N/A speed=7.73x    frame=17204 fps=185 q=-0.0 size=N/A time=00:11:57.55 bitrate=N/A speed=7.73x    frame=17299 fps=185 q=-0.0 size=N/A time=00:12:01.51 bitrate=N/A speed=7.72x    frame=17392 fps=185 q=-0.0 size=N/A time=00:12:05.39 bitrate=N/A speed=7.72x    frame=17488 fps=185 q=-0.0 size=N/A time=00:12:09.39 bitrate=N/A speed=7.72x    frame=17572 fps=185 q=-0.0 size=N/A time=00:12:12.89 bitrate=N/A speed=7.72x    frame=17668 fps=185 q=-0.0 size=N/A time=00:12:16.90 bitrate=N/A speed=7.72x    frame=17763 fps=185 q=-0.0 size=N/A time=00:12:20.86 bitrate=N/A speed=7.72x    frame=17849 fps=185 q=-0.0 size=N/A time=00:12:24.45 bitrate=N/A speed=7.72x    frame=17944 fps=185 q=-0.0 size=N/A time=00:12:28.41 bitrate=N/A speed=7.71x    frame=18035 fps=185 q=-0.0 size=N/A time=00:12:32.20 bitrate=N/A speed=7.71x    frame=18125 fps=185 q=-0.0 size=N/A time=00:12:35.96 bitrate=N/A speed=7.71x    frame=18221 fps=185 q=-0.0 size=N/A time=00:12:39.96 bitrate=N/A speed=7.71x    frame=18312 fps=185 q=-0.0 size=N/A time=00:12:43.76 bitrate=N/A speed=7.71x    frame=18401 fps=185 q=-0.0 size=N/A time=00:12:47.47 bitrate=N/A speed=7.71x    frame=18486 fps=185 q=-0.0 size=N/A time=00:12:51.02 bitrate=N/A speed= 7.7x    frame=18579 fps=185 q=-0.0 size=N/A time=00:12:54.89 bitrate=N/A speed= 7.7x    frame=18672 fps=185 q=-0.0 size=N/A time=00:12:58.77 bitrate=N/A speed= 7.7x    frame=18770 fps=185 q=-0.0 size=N/A time=00:13:02.86 bitrate=N/A speed= 7.7x    frame=18863 fps=185 q=-0.0 size=N/A time=00:13:06.74 bitrate=N/A speed= 7.7x    frame=18954 fps=185 q=-0.0 size=N/A time=00:13:10.53 bitrate=N/A speed= 7.7x    frame=19050 fps=185 q=-0.0 size=N/A time=00:13:14.54 bitrate=N/A speed= 7.7x    frame=19143 fps=185 q=-0.0 size=N/A time=00:13:18.42 bitrate=N/A speed= 7.7x    frame=19238 fps=185 q=-0.0 size=N/A time=00:13:22.38 bitrate=N/A speed= 7.7x    frame=19332 fps=185 q=-0.0 size=N/A time=00:13:26.30 bitrate=N/A speed= 7.7x    frame=19428 fps=185 q=-0.0 size=N/A time=00:13:30.30 bitrate=N/A speed= 7.7x    frame=19516 fps=185 q=-0.0 size=N/A time=00:13:33.97 bitrate=N/A speed= 7.7x    frame=19615 fps=185 q=-0.0 size=N/A time=00:13:38.10 bitrate=N/A speed= 7.7x    frame=19708 fps=185 q=-0.0 size=N/A time=00:13:41.98 bitrate=N/A speed= 7.7x    frame=19801 fps=185 q=-0.0 size=N/A time=00:13:45.86 bitrate=N/A speed= 7.7x    frame=19888 fps=184 q=-0.0 size=N/A time=00:13:49.49 bitrate=N/A speed=7.69x    frame=19989 fps=184 q=-0.0 size=N/A time=00:13:53.70 bitrate=N/A speed= 7.7x    frame=20085 fps=184 q=-0.0 size=N/A time=00:13:57.71 bitrate=N/A speed=7.69x    frame=20180 fps=184 q=-0.0 size=N/A time=00:14:01.67 bitrate=N/A speed=7.69x    frame=20273 fps=184 q=-0.0 size=N/A time=00:14:05.55 bitrate=N/A speed=7.69x    frame=20376 fps=185 q=-0.0 size=N/A time=00:14:09.84 bitrate=N/A speed= 7.7x    frame=20474 fps=185 q=-0.0 size=N/A time=00:14:13.93 bitrate=N/A speed= 7.7x    frame=20568 fps=185 q=-0.0 size=N/A time=00:14:17.85 bitrate=N/A speed= 7.7x    frame=20664 fps=185 q=-0.0 size=N/A time=00:14:21.86 bitrate=N/A speed= 7.7x    frame=20760 fps=185 q=-0.0 size=N/A time=00:14:25.86 bitrate=N/A speed= 7.7x    frame=20853 fps=185 q=-0.0 size=N/A time=00:14:29.78 bitrate=N/A speed= 7.7x    frame=20958 fps=185 q=-0.0 size=N/A time=00:14:34.12 bitrate=N/A speed= 7.7x    frame=21052 fps=185 q=-0.0 size=N/A time=00:14:38.04 bitrate=N/A speed= 7.7x    frame=21149 fps=185 q=-0.0 size=N/A time=00:14:42.08 bitrate=N/A speed= 7.7x    frame=21246 fps=185 q=-0.0 size=N/A time=00:14:46.13 bitrate=N/A speed= 7.7x    frame=21341 fps=185 q=-0.0 size=N/A time=00:14:50.09 bitrate=N/A speed= 7.7x    frame=21437 fps=185 q=-0.0 size=N/A time=00:14:54.10 bitrate=N/A speed= 7.7x    frame=21535 fps=185 q=-0.0 size=N/A time=00:14:58.18 bitrate=N/A speed= 7.7x    frame=21628 fps=185 q=-0.0 size=N/A time=00:15:02.06 bitrate=N/A speed= 7.7x    frame=21714 fps=185 q=-0.0 size=N/A time=00:15:05.65 bitrate=N/A speed= 7.7x    frame=21812 fps=185 q=-0.0 size=N/A time=00:15:09.74 bitrate=N/A speed= 7.7x    frame=21908 fps=185 q=-0.0 size=N/A time=00:15:13.74 bitrate=N/A speed= 7.7x    frame=22001 fps=185 q=-0.0 size=N/A time=00:15:17.62 bitrate=N/A speed= 7.7x    frame=22107 fps=185 q=-0.0 size=N/A time=00:15:22.04 bitrate=N/A speed= 7.7x    frame=22204 fps=185 q=-0.0 size=N/A time=00:15:26.09 bitrate=N/A speed= 7.7x    frame=22303 fps=185 q=-0.0 size=N/A time=00:15:30.22 bitrate=N/A speed= 7.7x    frame=22404 fps=185 q=-0.0 size=N/A time=00:15:34.43 bitrate=N/A speed=7.71x    frame=22498 fps=185 q=-0.0 size=N/A time=00:15:38.35 bitrate=N/A speed=7.71x    frame=22590 fps=185 q=-0.0 size=N/A time=00:15:42.19 bitrate=N/A speed=7.71x    frame=22689 fps=185 q=-0.0 size=N/A time=00:15:46.32 bitrate=N/A speed=7.71x    frame=22787 fps=185 q=-0.0 size=N/A time=00:15:50.40 bitrate=N/A speed=7.71x    frame=22878 fps=185 q=-0.0 size=N/A time=00:15:54.20 bitrate=N/A speed=7.71x    frame=22974 fps=185 q=-0.0 size=N/A time=00:15:58.20 bitrate=N/A speed=7.71x    frame=23063 fps=185 q=-0.0 size=N/A time=00:16:01.91 bitrate=N/A speed= 7.7x    frame=23150 fps=185 q=-0.0 size=N/A time=00:16:05.54 bitrate=N/A speed= 7.7x    frame=23249 fps=185 q=-0.0 size=N/A time=00:16:09.67 bitrate=N/A speed= 7.7x    frame=23338 fps=185 q=-0.0 size=N/A time=00:16:13.38 bitrate=N/A speed= 7.7x    frame=23435 fps=185 q=-0.0 size=N/A time=00:16:17.43 bitrate=N/A speed= 7.7x    frame=23528 fps=185 q=-0.0 size=N/A time=00:16:21.31 bitrate=N/A speed= 7.7x    frame=23628 fps=185 q=-0.0 size=N/A time=00:16:25.48 bitrate=N/A speed= 7.7x    frame=23721 fps=185 q=-0.0 size=N/A time=00:16:29.36 bitrate=N/A speed= 7.7x    frame=23813 fps=185 q=-0.0 size=N/A time=00:16:33.20 bitrate=N/A speed= 7.7x    frame=23903 fps=185 q=-0.0 size=N/A time=00:16:36.95 bitrate=N/A speed= 7.7x    frame=23992 fps=185 q=-0.0 size=N/A time=00:16:40.66 bitrate=N/A speed= 7.7x    frame=24091 fps=185 q=-0.0 size=N/A time=00:16:44.79 bitrate=N/A speed= 7.7x    frame=24177 fps=184 q=-0.0 size=N/A time=00:16:48.38 bitrate=N/A speed=7.69x    frame=24276 fps=185 q=-0.0 size=N/A time=00:16:52.51 bitrate=N/A speed= 7.7x    frame=24368 fps=184 q=-0.0 size=N/A time=00:16:56.34 bitrate=N/A speed=7.69x    frame=24456 fps=184 q=-0.0 size=N/A time=00:17:00.01 bitrate=N/A speed=7.69x    frame=24536 fps=184 q=-0.0 size=N/A time=00:17:03.35 bitrate=N/A speed=7.69x    frame=24638 fps=184 q=-0.0 size=N/A time=00:17:07.60 bitrate=N/A speed=7.69x    frame=24728 fps=184 q=-0.0 size=N/A time=00:17:11.36 bitrate=N/A speed=7.69x    frame=24825 fps=184 q=-0.0 size=N/A time=00:17:15.40 bitrate=N/A speed=7.69x    frame=24915 fps=184 q=-0.0 size=N/A time=00:17:19.16 bitrate=N/A speed=7.69x    frame=25016 fps=184 q=-0.0 size=N/A time=00:17:23.37 bitrate=N/A speed=7.69x    frame=25107 fps=184 q=-0.0 size=N/A time=00:17:27.17 bitrate=N/A speed=7.69x    frame=25208 fps=184 q=-0.0 size=N/A time=00:17:31.38 bitrate=N/A speed=7.69x    frame=25303 fps=184 q=-0.0 size=N/A time=00:17:35.34 bitrate=N/A speed=7.69x    frame=25398 fps=184 q=-0.0 size=N/A time=00:17:39.30 bitrate=N/A speed=7.69x    frame=25494 fps=184 q=-0.0 size=N/A time=00:17:43.31 bitrate=N/A speed=7.69x    frame=25590 fps=184 q=-0.0 size=N/A time=00:17:47.31 bitrate=N/A speed=7.69x    frame=25688 fps=184 q=-0.0 size=N/A time=00:17:51.40 bitrate=N/A speed=7.69x    frame=25790 fps=184 q=-0.0 size=N/A time=00:17:55.65 bitrate=N/A speed=7.69x    frame=25879 fps=184 q=-0.0 size=N/A time=00:17:59.36 bitrate=N/A speed=7.69x    frame=25979 fps=184 q=-0.0 size=N/A time=00:18:03.54 bitrate=N/A speed=7.69x    frame=26068 fps=184 q=-0.0 size=N/A time=00:18:07.25 bitrate=N/A speed=7.69x    frame=26166 fps=184 q=-0.0 size=N/A time=00:18:11.34 bitrate=N/A speed=7.69x    frame=26258 fps=184 q=-0.0 size=N/A time=00:18:15.17 bitrate=N/A speed=7.69x    frame=26355 fps=184 q=-0.0 size=N/A time=00:18:19.22 bitrate=N/A speed=7.69x    frame=26453 fps=184 q=-0.0 size=N/A time=00:18:23.31 bitrate=N/A speed=7.69x    frame=26549 fps=184 q=-0.0 size=N/A time=00:18:27.31 bitrate=N/A speed=7.69x    frame=26644 fps=184 q=-0.0 size=N/A time=00:18:31.27 bitrate=N/A speed=7.69x    frame=26740 fps=184 q=-0.0 size=N/A time=00:18:35.28 bitrate=N/A speed=7.69x    frame=26832 fps=184 q=-0.0 size=N/A time=00:18:39.11 bitrate=N/A speed=7.69x    frame=26927 fps=184 q=-0.0 size=N/A time=00:18:43.08 bitrate=N/A speed=7.69x    frame=27016 fps=184 q=-0.0 size=N/A time=00:18:46.79 bitrate=N/A speed=7.69x    frame=27113 fps=184 q=-0.0 size=N/A time=00:18:50.83 bitrate=N/A speed=7.69x    frame=27205 fps=184 q=-0.0 size=N/A time=00:18:54.67 bitrate=N/A speed=7.69x    frame=27301 fps=184 q=-0.0 size=N/A time=00:18:58.67 bitrate=N/A speed=7.69x    frame=27394 fps=184 q=-0.0 size=N/A time=00:19:02.55 bitrate=N/A speed=7.69x    frame=27488 fps=184 q=-0.0 size=N/A time=00:19:06.47 bitrate=N/A speed=7.69x    frame=27572 fps=184 q=-0.0 size=N/A time=00:19:09.98 bitrate=N/A speed=7.68x    frame=27673 fps=184 q=-0.0 size=N/A time=00:19:14.19 bitrate=N/A speed=7.69x    frame=27763 fps=184 q=-0.0 size=N/A time=00:19:17.94 bitrate=N/A speed=7.68x    frame=27852 fps=184 q=-0.0 size=N/A time=00:19:21.66 bitrate=N/A speed=7.68x    frame=27948 fps=184 q=-0.0 size=N/A time=00:19:25.66 bitrate=N/A speed=7.68x    frame=28044 fps=184 q=-0.0 size=N/A time=00:19:29.66 bitrate=N/A speed=7.68x    frame=28136 fps=184 q=-0.0 size=N/A time=00:19:33.50 bitrate=N/A speed=7.68x    frame=28232 fps=184 q=-0.0 size=N/A time=00:19:37.50 bitrate=N/A speed=7.68x    frame=28324 fps=184 q=-0.0 size=N/A time=00:19:41.34 bitrate=N/A speed=7.68x    frame=28416 fps=184 q=-0.0 size=N/A time=00:19:45.18 bitrate=N/A speed=7.68x    frame=28511 fps=184 q=-0.0 size=N/A time=00:19:49.14 bitrate=N/A speed=7.68x    frame=28601 fps=184 q=-0.0 size=N/A time=00:19:52.90 bitrate=N/A speed=7.68x    frame=28694 fps=184 q=-0.0 size=N/A time=00:19:56.77 bitrate=N/A speed=7.68x    frame=28808 fps=184 q=-0.0 size=N/A time=00:20:01.53 bitrate=N/A speed=7.68x    frame=28904 fps=184 q=-0.0 size=N/A time=00:20:05.53 bitrate=N/A speed=7.68x    frame=28994 fps=184 q=-0.0 size=N/A time=00:20:09.29 bitrate=N/A speed=7.68x    frame=29084 fps=184 q=-0.0 size=N/A time=00:20:13.04 bitrate=N/A speed=7.68x    frame=29176 fps=184 q=-0.0 size=N/A time=00:20:16.88 bitrate=N/A speed=7.68x    frame=29269 fps=184 q=-0.0 size=N/A time=00:20:20.76 bitrate=N/A speed=7.68x    frame=29365 fps=184 q=-0.0 size=N/A time=00:20:24.76 bitrate=N/A speed=7.68x    frame=29463 fps=184 q=-0.0 size=N/A time=00:20:28.85 bitrate=N/A speed=7.68x    frame=29557 fps=184 q=-0.0 size=N/A time=00:20:32.77 bitrate=N/A speed=7.68x    frame=29649 fps=184 q=-0.0 size=N/A time=00:20:36.61 bitrate=N/A speed=7.68x    frame=29743 fps=184 q=-0.0 size=N/A time=00:20:40.53 bitrate=N/A speed=7.68x    frame=29837 fps=184 q=-0.0 size=N/A time=00:20:44.45 bitrate=N/A speed=7.68x    frame=29931 fps=184 q=-0.0 size=N/A time=00:20:48.37 bitrate=N/A speed=7.68x    frame=30026 fps=184 q=-0.0 size=N/A time=00:20:52.33 bitrate=N/A speed=7.68x    frame=30123 fps=184 q=-0.0 size=N/A time=00:20:56.38 bitrate=N/A speed=7.68x    frame=30218 fps=184 q=-0.0 size=N/A time=00:21:00.34 bitrate=N/A speed=7.68x    frame=30310 fps=184 q=-0.0 size=N/A time=00:21:04.17 bitrate=N/A speed=7.68x    frame=30402 fps=184 q=-0.0 size=N/A time=00:21:08.01 bitrate=N/A speed=7.68x    frame=30486 fps=184 q=-0.0 size=N/A time=00:21:11.52 bitrate=N/A speed=7.67x    frame=30590 fps=184 q=-0.0 size=N/A time=00:21:15.85 bitrate=N/A speed=7.67x    frame=30683 fps=184 q=-0.0 size=N/A time=00:21:19.73 bitrate=N/A speed=7.67x    frame=30780 fps=184 q=-0.0 size=N/A time=00:21:23.78 bitrate=N/A speed=7.67x    frame=30869 fps=184 q=-0.0 size=N/A time=00:21:27.49 bitrate=N/A speed=7.67x    frame=30964 fps=184 q=-0.0 size=N/A time=00:21:31.45 bitrate=N/A speed=7.67x    frame=31059 fps=184 q=-0.0 size=N/A time=00:21:35.41 bitrate=N/A speed=7.67x    frame=31160 fps=184 q=-0.0 size=N/A time=00:21:39.63 bitrate=N/A speed=7.67x    frame=31246 fps=184 q=-0.0 size=N/A time=00:21:43.21 bitrate=N/A speed=7.67x    frame=31350 fps=184 q=-0.0 size=N/A time=00:21:47.55 bitrate=N/A speed=7.68x    frame=31436 fps=184 q=-0.0 size=N/A time=00:21:51.14 bitrate=N/A speed=7.67x    frame=31544 fps=184 q=-0.0 size=N/A time=00:21:55.64 bitrate=N/A speed=7.68x    frame=31640 fps=184 q=-0.0 size=N/A time=00:21:59.65 bitrate=N/A speed=7.68x    frame=31737 fps=184 q=-0.0 size=N/A time=00:22:03.69 bitrate=N/A speed=7.68x    frame=31816 fps=184 q=-0.0 size=N/A time=00:22:06.99 bitrate=N/A speed=7.67x    frame=31912 fps=184 q=-0.0 size=N/A time=00:22:10.99 bitrate=N/A speed=7.67x    frame=32002 fps=184 q=-0.0 size=N/A time=00:22:14.75 bitrate=N/A speed=7.67x    frame=32094 fps=184 q=-0.0 size=N/A time=00:22:18.58 bitrate=N/A speed=7.67x    frame=32180 fps=184 q=-0.0 size=N/A time=00:22:22.17 bitrate=N/A speed=7.67x    frame=32290 fps=184 q=-0.0 size=N/A time=00:22:26.76 bitrate=N/A speed=7.67x    frame=32387 fps=184 q=-0.0 size=N/A time=00:22:30.80 bitrate=N/A speed=7.67x    frame=32485 fps=184 q=-0.0 size=N/A time=00:22:34.89 bitrate=N/A speed=7.67x    frame=32584 fps=184 q=-0.0 size=N/A time=00:22:39.02 bitrate=N/A speed=7.67x    frame=32677 fps=184 q=-0.0 size=N/A time=00:22:42.90 bitrate=N/A speed=7.67x    frame=32780 fps=184 q=-0.0 size=N/A time=00:22:47.19 bitrate=N/A speed=7.68x    frame=32878 fps=184 q=-0.0 size=N/A time=00:22:51.28 bitrate=N/A speed=7.68x    frame=32972 fps=184 q=-0.0 size=N/A time=00:22:55.20 bitrate=N/A speed=7.68x    frame=33068 fps=184 q=-0.0 size=N/A time=00:22:59.21 bitrate=N/A speed=7.68x    frame=33160 fps=184 q=-0.0 size=N/A time=00:23:03.04 bitrate=N/A speed=7.68x    frame=33260 fps=184 q=-0.0 size=N/A time=00:23:07.21 bitrate=N/A speed=7.68x    frame=33351 fps=184 q=-0.0 size=N/A time=00:23:11.01 bitrate=N/A speed=7.68x    frame=33441 fps=184 q=-0.0 size=N/A time=00:23:14.76 bitrate=N/A speed=7.68x    frame=33540 fps=184 q=-0.0 size=N/A time=00:23:18.89 bitrate=N/A speed=7.68x    frame=33630 fps=184 q=-0.0 size=N/A time=00:23:22.65 bitrate=N/A speed=7.68x    frame=33715 fps=184 q=-0.0 size=N/A time=00:23:26.19 bitrate=N/A speed=7.67x    frame=33810 fps=184 q=-0.0 size=N/A time=00:23:30.15 bitrate=N/A speed=7.67x    frame=33899 fps=184 q=-0.0 size=N/A time=00:23:33.87 bitrate=N/A speed=7.67x    frame=33994 fps=184 q=-0.0 size=N/A time=00:23:37.83 bitrate=N/A speed=7.67x    frame=34083 fps=184 q=-0.0 size=N/A time=00:23:41.54 bitrate=N/A speed=7.67x    frame=34170 fps=184 q=-0.0 size=N/A time=00:23:45.17 bitrate=N/A speed=7.67x    frame=34257 fps=184 q=-0.0 size=N/A time=00:23:48.80 bitrate=N/A speed=7.67x    frame=34357 fps=184 q=-0.0 size=N/A time=00:23:52.97 bitrate=N/A speed=7.67x    frame=34437 fps=184 q=-0.0 size=N/A time=00:23:56.30 bitrate=N/A speed=7.67x    frame=34534 fps=184 q=-0.0 size=N/A time=00:24:00.35 bitrate=N/A speed=7.67x    frame=34621 fps=184 q=-0.0 size=N/A time=00:24:03.98 bitrate=N/A speed=7.66x    frame=34716 fps=184 q=-0.0 size=N/A time=00:24:07.94 bitrate=N/A speed=7.66x    frame=34812 fps=184 q=-0.0 size=N/A time=00:24:11.95 bitrate=N/A speed=7.66x    frame=34904 fps=184 q=-0.0 size=N/A time=00:24:15.78 bitrate=N/A speed=7.66x    frame=34998 fps=184 q=-0.0 size=N/A time=00:24:19.70 bitrate=N/A speed=7.66x    frame=35085 fps=184 q=-0.0 size=N/A time=00:24:23.33 bitrate=N/A speed=7.66x    frame=35177 fps=184 q=-0.0 size=N/A time=00:24:27.17 bitrate=N/A speed=7.66x    frame=35263 fps=184 q=-0.0 size=N/A time=00:24:30.76 bitrate=N/A speed=7.66x    frame=35351 fps=184 q=-0.0 size=N/A time=00:24:34.43 bitrate=N/A speed=7.66x    frame=35443 fps=184 q=-0.0 size=N/A time=00:24:38.26 bitrate=N/A speed=7.66x    frame=35531 fps=184 q=-0.0 size=N/A time=00:24:41.93 bitrate=N/A speed=7.66x    frame=35616 fps=184 q=-0.0 size=N/A time=00:24:45.48 bitrate=N/A speed=7.65x    frame=35705 fps=183 q=-0.0 size=N/A time=00:24:49.19 bitrate=N/A speed=7.65x    frame=35797 fps=183 q=-0.0 size=N/A time=00:24:53.03 bitrate=N/A speed=7.65x    frame=35890 fps=183 q=-0.0 size=N/A time=00:24:56.91 bitrate=N/A speed=7.65x    frame=35981 fps=183 q=-0.0 size=N/A time=00:25:00.70 bitrate=N/A speed=7.65x    frame=36070 fps=183 q=-0.0 size=N/A time=00:25:04.41 bitrate=N/A speed=7.65x    frame=36166 fps=183 q=-0.0 size=N/A time=00:25:08.42 bitrate=N/A speed=7.65x    frame=36255 fps=183 q=-0.0 size=N/A time=00:25:12.13 bitrate=N/A speed=7.65x    frame=36345 fps=183 q=-0.0 size=N/A time=00:25:15.88 bitrate=N/A speed=7.65x    frame=36433 fps=183 q=-0.0 size=N/A time=00:25:19.55 bitrate=N/A speed=7.65x    frame=36539 fps=183 q=-0.0 size=N/A time=00:25:23.98 bitrate=N/A speed=7.65x    frame=36628 fps=183 q=-0.0 size=N/A time=00:25:27.69 bitrate=N/A speed=7.65x    frame=36706 fps=183 q=-0.0 size=N/A time=00:25:30.94 bitrate=N/A speed=7.64x    frame=36809 fps=183 q=-0.0 size=N/A time=00:25:35.24 bitrate=N/A speed=7.65x    frame=36892 fps=183 q=-0.0 size=N/A time=00:25:38.70 bitrate=N/A speed=7.64x    frame=36986 fps=183 q=-0.0 size=N/A time=00:25:42.62 bitrate=N/A speed=7.64x    frame=37074 fps=183 q=-0.0 size=N/A time=00:25:46.29 bitrate=N/A speed=7.64x    frame=37165 fps=183 q=-0.0 size=N/A time=00:25:50.09 bitrate=N/A speed=7.64x    frame=37259 fps=183 q=-0.0 size=N/A time=00:25:54.01 bitrate=N/A speed=7.64x    frame=37354 fps=183 q=-0.0 size=N/A time=00:25:57.97 bitrate=N/A speed=7.64x    frame=37447 fps=183 q=-0.0 size=N/A time=00:26:01.85 bitrate=N/A speed=7.64x    frame=37541 fps=183 q=-0.0 size=N/A time=00:26:05.77 bitrate=N/A speed=7.64x    frame=37628 fps=183 q=-0.0 size=N/A time=00:26:09.40 bitrate=N/A speed=7.64x    frame=37733 fps=183 q=-0.0 size=N/A time=00:26:13.78 bitrate=N/A speed=7.64x    frame=37833 fps=183 q=-0.0 size=N/A time=00:26:17.95 bitrate=N/A speed=7.64x    frame=37918 fps=183 q=-0.0 size=N/A time=00:26:21.49 bitrate=N/A speed=7.64x    frame=38013 fps=183 q=-0.0 size=N/A time=00:26:25.45 bitrate=N/A speed=7.64x    frame=38096 fps=183 q=-0.0 size=N/A time=00:26:28.92 bitrate=N/A speed=7.64x    frame=38195 fps=183 q=-0.0 size=N/A time=00:26:33.04 bitrate=N/A speed=7.64x    frame=38286 fps=183 q=-0.0 size=N/A time=00:26:36.84 bitrate=N/A speed=7.64x    frame=38376 fps=183 q=-0.0 size=N/A time=00:26:40.59 bitrate=N/A speed=7.64x    frame=38469 fps=183 q=-0.0 size=N/A time=00:26:44.47 bitrate=N/A speed=7.64x    frame=38557 fps=183 q=-0.0 size=N/A time=00:26:48.14 bitrate=N/A speed=7.64x    frame=38642 fps=183 q=-0.0 size=N/A time=00:26:51.69 bitrate=N/A speed=7.63x    frame=38727 fps=183 q=-0.0 size=N/A time=00:26:55.23 bitrate=N/A speed=7.63x    frame=38823 fps=183 q=-0.0 size=N/A time=00:26:59.24 bitrate=N/A speed=7.63x    frame=38917 fps=183 q=-0.0 size=N/A time=00:27:03.16 bitrate=N/A speed=7.63x    frame=39010 fps=183 q=-0.0 size=N/A time=00:27:07.04 bitrate=N/A speed=7.63x    frame=39102 fps=183 q=-0.0 size=N/A time=00:27:10.87 bitrate=N/A speed=7.63x    frame=39191 fps=183 q=-0.0 size=N/A time=00:27:14.59 bitrate=N/A speed=7.63x    frame=39281 fps=183 q=-0.0 size=N/A time=00:27:18.34 bitrate=N/A speed=7.63x    frame=39375 fps=183 q=-0.0 size=N/A time=00:27:22.26 bitrate=N/A speed=7.63x    frame=39465 fps=183 q=-0.0 size=N/A time=00:27:26.01 bitrate=N/A speed=7.63x    frame=39554 fps=183 q=-0.0 size=N/A time=00:27:29.73 bitrate=N/A speed=7.63x    frame=39648 fps=183 q=-0.0 size=N/A time=00:27:33.65 bitrate=N/A speed=7.63x    frame=39749 fps=183 q=-0.0 size=N/A time=00:27:37.86 bitrate=N/A speed=7.63x    frame=39840 fps=183 q=-0.0 size=N/A time=00:27:41.66 bitrate=N/A speed=7.63x    frame=39936 fps=183 q=-0.0 size=N/A time=00:27:45.66 bitrate=N/A speed=7.63x    frame=40024 fps=183 q=-0.0 size=N/A time=00:27:49.33 bitrate=N/A speed=7.63x    frame=40116 fps=183 q=-0.0 size=N/A time=00:27:53.17 bitrate=N/A speed=7.63x    frame=40192 fps=183 q=-0.0 size=N/A time=00:27:56.34 bitrate=N/A speed=7.62x    [Parsed_ssim_10 @ 000001c53e57f800] SSIM Y:0.987683 (19.094836) U:0.990124 (20.054036) V:0.990409 (20.181209) All:0.988544 (19.409608)
[out#0/null @ 000001c53d9d9840] video:17298KiB audio:314828KiB subtitle:0KiB other streams:0KiB global headers:0KiB muxing overhead: unknown
frame=40256 fps=183 q=-0.0 Lsize=N/A time=00:27:59.01 bitrate=N/A speed=7.62x    
